<?xml version="1.0" encoding="UTF-8"?>
<svg xmlns="http://www.w3.org/2000/svg" xmlns:xlink="http://www.w3.org/1999/xlink" width="300px" height="338px" viewBox="0 0 300 337" version="1.1">
<defs>
<clipPath id="clip1">
  <path d="M 110.308594 162.792969 L 189.695312 162.792969 L 189.695312 252.75 L 110.308594 252.75 Z M 110.308594 162.792969 "/>
</clipPath>
<clipPath id="clip2">
  <path d="M 125.46875 84.25 L 174.527344 84.25 L 174.527344 149.664062 L 125.46875 149.664062 Z M 125.46875 84.25 "/>
</clipPath>
</defs>
<g id="surface1">
<path style=" stroke:none;fill-rule:nonzero;fill:rgb(0%,100%,85.490196%);fill-opacity:1;" d="M 205.855469 38.386719 C 206.519531 38.386719 211.824219 41.035156 214.804688 42.027344 C 213.8125 42.359375 211.492188 41.367188 208.839844 40.375 C 209.503906 40.375 210.828125 40.707031 212.15625 41.367188 C 211.492188 40.707031 206.519531 39.050781 205.855469 38.386719 M 156.464844 28.128906 C 157.457031 27.796875 169.0625 29.449219 174.363281 29.78125 C 174.695312 29.449219 173.703125 29.449219 172.375 29.121094 C 174.03125 28.789062 177.347656 29.78125 179.667969 30.113281 C 172.707031 30.445312 165.082031 28.457031 158.453125 29.121094 C 156.132812 29.121094 157.789062 28.457031 156.464844 28.128906 M 146.851562 28.128906 C 152.816406 28.128906 157.457031 28.128906 148.839844 28.789062 C 147.84375 28.457031 146.519531 28.457031 146.851562 28.128906 M 240.664062 55.601562 C 241.324219 55.601562 243.976562 58.578125 245.304688 59.570312 C 244.972656 59.902344 242.320312 57.253906 240.996094 56.261719 C 241.324219 56.59375 240.996094 56.261719 240.664062 55.601562 M 234.03125 51.296875 C 231.382812 48.980469 230.386719 48.980469 230.054688 47.65625 C 232.375 48.980469 234.03125 50.304688 234.03125 51.296875 M 191.269531 30.445312 C 191.601562 30.113281 192.265625 30.773438 193.921875 31.105469 C 191.933594 30.773438 192.265625 31.105469 192.929688 31.769531 C 190.609375 31.4375 189.945312 31.105469 190.609375 30.445312 C 191.933594 31.105469 192.265625 30.773438 191.269531 30.445312 M 97.128906 34.417969 C 97.128906 34.085938 98.453125 33.421875 99.449219 33.09375 C 98.453125 33.753906 98.785156 34.085938 100.441406 33.421875 C 100.441406 33.753906 98.453125 34.417969 97.128906 35.078125 C 97.789062 34.746094 98.453125 33.753906 97.128906 34.417969 M 197.902344 27.132812 C 196.90625 27.464844 193.257812 25.480469 189.613281 24.816406 C 187.625 24.15625 197.570312 26.472656 197.902344 27.132812 M 2.320312 190.648438 C 4.308594 198.921875 2.984375 198.59375 2.320312 190.648438 M 2.652344 141 C 2.984375 139.675781 3.316406 136.035156 3.644531 136.363281 C 2.652344 144.308594 0.996094 147.949219 0.664062 153.90625 C 1.65625 148.609375 0.332031 156.886719 0 158.871094 C 0.332031 161.519531 0.332031 157.21875 0.996094 157.878906 C 1.65625 158.871094 -0.332031 172.773438 0.332031 165.160156 C -0.332031 172.113281 0.332031 179.726562 1.65625 181.710938 C 0 192.304688 8.289062 216.136719 9.945312 221.101562 C 10.277344 221.429688 9.945312 219.445312 10.609375 220.769531 C 11.269531 225.074219 14.253906 228.050781 15.25 232.683594 C 16.242188 234.007812 20.222656 241.292969 20.882812 242.945312 C 22.210938 245.59375 22.871094 245.261719 24.199219 247.910156 C 28.175781 255.523438 34.476562 262.804688 40.441406 269.757812 C 59.667969 292.265625 89.171875 310.800781 121.988281 317.421875 C 154.804688 324.371094 189.28125 319.40625 216.132812 306.5 C 217.789062 305.503906 217.457031 305.175781 219.449219 304.511719 C 228.730469 301.535156 240 291.933594 246.296875 288.292969 C 249.28125 284.984375 257.238281 279.355469 258.230469 276.046875 C 263.867188 271.414062 269.503906 263.800781 272.484375 258.835938 C 274.144531 256.1875 275.46875 256.1875 276.132812 254.53125 C 275.800781 254.53125 281.4375 247.582031 283.09375 243.609375 C 282.429688 243.609375 281.4375 245.59375 281.4375 243.609375 C 293.371094 220.769531 300 189.988281 296.351562 168.800781 C 297.015625 194.953125 290.386719 224.078125 277.789062 242.617188 C 272.15625 254.53125 260.550781 267.441406 249.945312 276.707031 C 248.289062 278.363281 246.628906 280.347656 244.640625 281.671875 C 238.34375 286.96875 231.382812 291.273438 224.089844 295.246094 C 206.851562 304.84375 187.625 313.117188 165.082031 313.449219 C 203.867188 310.140625 238.675781 290.609375 257.902344 266.777344 C 243.316406 281.011719 237.015625 286.636719 220.773438 294.914062 C 219.449219 297.230469 208.507812 301.863281 201.214844 303.851562 C 205.523438 301.863281 214.476562 298.554688 217.457031 295.90625 C 193.257812 307.492188 166.410156 314.113281 141.214844 310.46875 C 150.828125 310.46875 164.417969 310.800781 177.347656 308.484375 C 179.335938 307.824219 180.332031 307.160156 182.652344 306.828125 C 207.84375 301.203125 232.042969 288.957031 249.28125 271.742188 C 239.335938 280.679688 224.417969 291.273438 214.804688 294.582031 C 223.757812 289.617188 240 280.019531 245.304688 272.738281 C 234.695312 283.328125 214.804688 293.921875 202.210938 298.554688 C 200.222656 298.886719 203.535156 297.230469 200.222656 298.554688 C 196.242188 299.546875 197.902344 299.546875 196.90625 300.210938 C 181.65625 304.511719 164.089844 308.152344 149.503906 306.828125 C 146.851562 306.5 145.855469 305.835938 143.535156 305.835938 C 140.882812 305.503906 138.5625 305.503906 135.578125 305.503906 C 123.976562 304.179688 111.382812 299.546875 102.097656 295.574219 C 97.128906 293.257812 92.15625 291.605469 87.183594 288.625 C 83.203125 286.308594 79.890625 283.660156 76.574219 281.011719 C 63.976562 271.742188 53.371094 262.476562 43.425781 249.234375 C 25.523438 224.410156 16.242188 193.296875 17.570312 162.511719 C 18.894531 131.730469 31.160156 101.609375 50.71875 79.433594 C 49.722656 80.425781 52.042969 77.113281 54.03125 75.128906 C 54.03125 75.792969 53.703125 76.785156 56.023438 74.46875 C 58.011719 72.148438 55.359375 73.804688 56.355469 72.480469 C 76.90625 49.972656 112.707031 31.769531 149.503906 31.105469 C 150.828125 30.113281 153.148438 28.789062 155.800781 29.449219 C 155.800781 29.78125 154.144531 29.78125 154.144531 29.78125 C 157.789062 29.449219 161.105469 29.449219 162.761719 30.113281 C 163.09375 29.78125 161.4375 29.449219 162.761719 29.449219 C 165.082031 30.113281 165.746094 29.449219 167.070312 30.113281 C 166.078125 30.113281 165.082031 30.113281 164.417969 30.445312 C 172.707031 30.445312 178.011719 32.429688 186.296875 33.09375 C 181.988281 32.097656 180.996094 32.097656 177.679688 31.105469 C 181.324219 31.769531 182.984375 32.429688 184.640625 32.097656 C 183.976562 32.097656 184.308594 31.105469 184.972656 31.4375 C 191.601562 33.09375 192.265625 33.753906 199.226562 36.070312 C 199.890625 35.410156 196.242188 35.078125 195.25 34.085938 C 201.878906 36.402344 207.84375 38.058594 211.824219 40.707031 C 210.496094 39.710938 206.519531 38.386719 203.535156 37.0625 C 203.203125 37.394531 204.53125 37.726562 204.863281 38.386719 C 201.546875 36.734375 196.90625 35.078125 192.265625 34.417969 C 196.242188 35.410156 198.894531 36.734375 200.550781 37.394531 C 196.90625 36.734375 192.265625 34.417969 186.960938 33.421875 C 195.578125 36.070312 211.824219 42.027344 221.769531 47.324219 C 218.121094 45.007812 213.8125 43.351562 211.492188 42.027344 C 213.480469 42.359375 215.800781 43.683594 215.800781 43.023438 C 218.121094 44.015625 221.105469 46.332031 222.761719 46.664062 C 219.777344 44.675781 213.8125 41.699219 211.824219 40.707031 C 236.683594 51.960938 258.894531 70.828125 273.148438 94.988281 C 274.476562 97.304688 276.464844 102.601562 278.121094 103.265625 C 277.789062 101.609375 276.464844 100.617188 275.136719 97.96875 C 275.800781 97.96875 275.800781 96.976562 275.136719 95.980469 C 273.8125 94.328125 275.136719 97.304688 273.8125 95.652344 C 267.84375 84.726562 260.550781 75.128906 249.28125 64.539062 C 255.578125 70.496094 250.9375 66.191406 249.613281 64.207031 C 258.230469 71.820312 268.175781 84.726562 272.484375 91.347656 C 271.824219 90.355469 271.492188 89.691406 271.824219 89.691406 C 279.777344 103.265625 284.75 115.511719 289.722656 133.054688 C 290.054688 133.386719 289.722656 131.730469 290.386719 132.722656 C 293.703125 146.625 294.695312 158.210938 294.363281 168.800781 C 297.015625 150.929688 291.050781 123.125 280.441406 101.277344 C 279.117188 98.628906 279.117188 100.617188 277.789062 97.636719 C 277.789062 96.644531 276.796875 94.660156 276.132812 93.335938 C 262.871094 71.488281 246.628906 55.929688 227.402344 43.683594 C 228.730469 44.347656 231.382812 46.332031 231.382812 46 C 195.578125 22.5 154.144531 19.191406 120 26.472656 C 117.679688 27.464844 116.683594 28.457031 114.03125 29.78125 C 119.003906 28.128906 121.988281 27.796875 126.628906 26.804688 C 127.625 25.808594 122.320312 27.132812 124.640625 26.140625 C 124.972656 26.472656 129.28125 25.480469 130.277344 25.808594 C 130.277344 26.140625 128.949219 26.472656 128.617188 26.804688 C 139.558594 24.484375 150.828125 24.15625 160.441406 24.816406 C 154.804688 25.148438 144.53125 24.15625 141.214844 25.808594 C 144.53125 25.480469 149.171875 25.148438 152.15625 25.480469 C 148.175781 25.480469 140.882812 25.808594 137.570312 26.140625 C 137.238281 25.808594 142.871094 25.148438 139.226562 25.148438 C 137.570312 25.480469 134.917969 25.480469 133.921875 26.472656 C 105.414062 29.121094 77.570312 44.015625 58.011719 61.558594 C 54.03125 64.867188 49.390625 68.507812 46.410156 72.148438 C 39.117188 80.425781 34.476562 88.699219 29.171875 95.980469 C 32.484375 89.03125 39.777344 78.4375 48.398438 69.503906 C 57.015625 60.566406 66.296875 52.953125 71.269531 48.980469 C 71.269531 50.304688 79.226562 44.015625 82.210938 42.027344 C 80.222656 43.683594 83.535156 41.367188 84.199219 41.699219 C 94.804688 35.410156 103.425781 33.09375 113.039062 29.449219 C 110.71875 30.113281 108.730469 30.773438 108.398438 30.445312 C 110.71875 29.78125 112.042969 29.121094 111.710938 28.789062 C 102.429688 31.4375 87.84375 37.726562 76.242188 44.675781 C 97.128906 30.445312 123.644531 21.839844 149.835938 21.507812 C 176.023438 20.84375 201.546875 27.464844 221.769531 38.058594 C 235.359375 44.015625 248.289062 54.9375 258.5625 65.53125 C 261.546875 68.179688 259.226562 64.867188 263.535156 69.503906 C 262.210938 68.839844 261.214844 68.179688 262.871094 70.164062 C 265.523438 73.144531 262.210938 67.847656 266.519531 73.144531 C 266.1875 73.144531 264.863281 71.488281 264.863281 72.148438 C 276.464844 82.410156 285.414062 100.945312 290.71875 113.195312 C 289.390625 108.230469 286.078125 101.277344 283.425781 96.3125 C 291.382812 110.878906 294.03125 119.484375 297.347656 132.390625 C 298.675781 133.386719 296.683594 127.757812 298.011719 130.40625 C 298.34375 132.390625 298.675781 138.679688 300 139.675781 C 299.003906 133.386719 297.347656 125.773438 296.023438 124.449219 C 297.015625 125.109375 294.363281 116.835938 292.707031 114.847656 C 292.042969 109.554688 287.402344 100.285156 283.425781 93.335938 C 269.171875 65.53125 243.644531 42.691406 215.136719 30.113281 C 215.136719 29.449219 213.480469 28.789062 212.816406 28.128906 C 184.640625 16.210938 150.828125 12.902344 118.34375 20.515625 C 85.523438 28.457031 54.695312 47.324219 32.816406 74.46875 C 33.8125 71.15625 42.097656 64.867188 42.429688 62.21875 C 32.816406 72.480469 22.542969 86.050781 15.582031 100.617188 C 8.289062 115.179688 4.308594 130.074219 2.652344 141 "/>
<g clip-path="url(#clip1)" clip-rule="nonzero">
<path style=" stroke:none;fill-rule:nonzero;fill:rgb(0%,100%,85.490196%);fill-opacity:1;" d="M 172.847656 169.703125 C 178.160156 173.4375 182.292969 178.566406 185.253906 185.085938 C 188.210938 191.605469 189.691406 198.992188 189.691406 207.25 C 189.691406 215.507812 188.210938 223.023438 185.253906 229.804688 C 182.292969 236.582031 178.160156 241.886719 172.847656 245.710938 C 169.453125 248.144531 165.5625 249.925781 161.175781 251.054688 C 156.773438 252.183594 151.394531 252.75 145.039062 252.75 L 110.308594 252.75 L 110.308594 251.707031 L 121.015625 250.664062 L 121.015625 164.878906 L 110.308594 163.835938 L 110.308594 162.792969 L 145.039062 162.792969 C 156.875 162.792969 166.148438 165.09375 172.847656 169.703125 Z M 168.148438 243.492188 C 170.933594 239.929688 173.136719 234.863281 174.753906 228.292969 C 176.355469 221.738281 177.15625 214.507812 177.15625 206.597656 C 177.15625 198.863281 176.402344 192.039062 174.886719 186.128906 C 173.355469 180.21875 171.109375 175.523438 168.148438 172.046875 C 165.710938 169.179688 162.707031 167.179688 159.140625 166.050781 C 155.570312 164.921875 150.480469 164.355469 143.863281 164.355469 L 131.066406 164.355469 L 131.066406 251.183594 L 143.863281 251.183594 C 150.828125 251.183594 156.050781 250.621094 159.53125 249.492188 C 163.011719 248.359375 165.886719 246.363281 168.148438 243.492188 Z M 168.148438 243.492188 "/>
</g>
<g clip-path="url(#clip2)" clip-rule="nonzero">
<path style=" stroke:none;fill-rule:nonzero;fill:rgb(0%,100%,85.490196%);fill-opacity:1;" d="M 174.5 125.21875 C 174.453125 115.621094 162.488281 109.8125 162.019531 109.59375 C 160.480469 108.777344 159.683594 107.574219 160.792969 104.359375 C 161.789062 101.496094 162.648438 98.613281 162.246094 94.882812 C 161.621094 89.007812 156.15625 84.25 150.050781 84.25 C 150.035156 84.25 150.015625 84.25 149.996094 84.25 C 143.910156 84.199219 138.375 88.992188 137.746094 94.882812 C 137.34375 98.617188 138.203125 101.496094 139.199219 104.355469 C 140.308594 107.574219 139.507812 108.777344 138.011719 109.570312 C 137.503906 109.8125 125.535156 115.621094 125.488281 125.21875 C 125.445312 134.125 125.488281 148.40625 125.488281 148.550781 C 125.492188 149.164062 125.992188 149.664062 126.609375 149.664062 L 173.40625 149.664062 C 174.023438 149.664062 174.523438 149.164062 174.523438 148.546875 C 174.523438 148.40625 174.546875 134.125 174.5 125.21875 Z M 139.972656 95.121094 C 140.472656 90.433594 145.03125 86.488281 149.941406 86.488281 C 149.957031 86.488281 149.972656 86.488281 149.992188 86.488281 C 149.992188 86.488281 149.996094 86.488281 150 86.488281 C 150.015625 86.484375 150.03125 86.488281 150.050781 86.488281 C 154.957031 86.488281 159.515625 90.429688 160.019531 95.121094 C 160.339844 98.097656 159.792969 100.40625 158.671875 103.628906 C 158.375 104.484375 157.71875 106.410156 158.222656 108.300781 C 155.570312 110.820312 152.8125 112.074219 149.921875 112 C 145.976562 111.890625 142.882812 109.304688 141.789062 108.261719 C 142.265625 106.386719 141.613281 104.480469 141.316406 103.625 C 140.199219 100.410156 139.652344 98.101562 139.972656 95.121094 Z M 172.285156 147.425781 L 127.726562 147.425781 C 127.71875 143.882812 127.695312 132.675781 127.730469 125.230469 C 127.769531 117.042969 138.867188 111.644531 139.019531 111.570312 C 139.730469 111.195312 140.265625 110.757812 140.6875 110.296875 C 142.265625 111.699219 145.574219 114.113281 149.839844 114.234375 C 149.953125 114.238281 150.066406 114.238281 150.179688 114.238281 C 153.382812 114.238281 156.457031 112.914062 159.339844 110.320312 C 159.765625 110.785156 160.304688 111.214844 161.015625 111.59375 C 161.128906 111.644531 172.21875 117.023438 172.261719 125.230469 C 172.296875 132.675781 172.289062 143.878906 172.285156 147.425781 Z M 172.285156 147.425781 "/>
</g>
<path style=" stroke:none;fill-rule:nonzero;fill:rgb(0%,100%,85.490196%);fill-opacity:1;" d="M 148.875 101.554688 L 153.355469 101.570312 C 153.359375 101.570312 153.359375 101.570312 153.359375 101.570312 C 153.976562 101.570312 154.480469 101.074219 154.480469 100.457031 C 154.484375 99.839844 153.984375 99.335938 153.367188 99.335938 L 150 99.320312 L 150 93.722656 C 150 93.105469 149.5 92.605469 148.878906 92.605469 C 148.257812 92.605469 147.757812 93.105469 147.757812 93.722656 L 147.757812 100.4375 C 147.757812 101.054688 148.257812 101.554688 148.875 101.554688 Z M 148.875 101.554688 "/>
<path style=" stroke:none;fill-rule:nonzero;fill:rgb(0%,100%,85.490196%);fill-opacity:1;" d="M 146.800781 124.089844 C 146.40625 123.613281 145.703125 123.542969 145.222656 123.9375 L 138.824219 129.203125 C 138.570312 129.417969 138.417969 129.734375 138.417969 130.070312 C 138.421875 130.40625 138.570312 130.722656 138.832031 130.933594 L 144.988281 135.964844 C 145.195312 136.132812 145.445312 136.214844 145.695312 136.214844 C 146.023438 136.214844 146.34375 136.078125 146.566406 135.808594 C 146.957031 135.328125 146.886719 134.625 146.40625 134.234375 L 141.304688 130.0625 L 146.648438 125.664062 C 147.125 125.269531 147.191406 124.5625 146.800781 124.089844 Z M 146.800781 124.089844 "/>
<path style=" stroke:none;fill-rule:nonzero;fill:rgb(0%,100%,85.490196%);fill-opacity:1;" d="M 159.058594 133.980469 L 151.480469 133.980469 C 150.859375 133.980469 150.359375 134.480469 150.359375 135.097656 C 150.359375 135.714844 150.859375 136.214844 151.480469 136.214844 L 159.058594 136.214844 C 159.679688 136.214844 160.179688 135.714844 160.179688 135.097656 C 160.179688 134.480469 159.679688 133.980469 159.058594 133.980469 Z M 159.058594 133.980469 "/>
</g>
</svg>
